<svg xmlns="http://www.w3.org/2000/svg" version="1.1" xmlns:xlink="http://www.w3.org/1999/xlink" xmlns:svgjs="http://svgjs.com/svgjs" width="1440" height="560" preserveAspectRatio="none" viewBox="0 0 1440 560"><g mask="url(&quot;#SvgjsMask1048&quot;)" fill="none"><path d="M720 566.64C791.1 560.32 843 503.65 889.36 449.36 931.05 400.52 964.77 344.22 964.66 280 964.55 215.87 934.02 156.67 888.81 111.19 843.44 65.59 784.2 38.11 720 33.97 651.01 29.53 576.69 38.95 527.96 87.96 479.32 136.89 477.23 211.03 475.43 280 473.56 351.61 471.16 427.86 517.64 482.36 566.95 540.15 644.34 573.35 720 566.64" fill="rgba(245, 250, 255, 1)"></path><path d="M720 410.29C752.32 407.42 775.91 381.66 796.98 356.98 815.93 334.78 831.26 309.19 831.21 280 831.16 250.85 817.28 223.94 796.73 203.27 776.11 182.54 749.18 170.05 720 168.17 688.64 166.15 654.86 170.43 632.71 192.71 610.6 214.95 609.65 248.65 608.83 280 607.98 312.55 606.89 347.21 628.02 371.98 650.43 398.25 685.61 413.34 720 410.29" fill="rgba(176, 196, 222, 1)"></path></g><defs><mask id="SvgjsMask1048"><rect width="1440" height="560" fill="#ffffff"></rect></mask></defs></svg>