<svg xmlns="http://www.w3.org/2000/svg" version="1.1" xmlns:xlink="http://www.w3.org/1999/xlink" xmlns:svgjs="http://svgjs.com/svgjs" width="1440" height="560" preserveAspectRatio="none" viewBox="0 0 1440 560"><g mask="url(&quot;#SvgjsMask1001&quot;)" fill="none"><path d="M -745.9994957411711,422 C -650,387.8 -458,274 -265.9994957411712,251 C -74,228 22,316.8 214.0005042588288,307 C 406,297.2 502,194.8 694.0005042588289,202 C 886,209.2 1024.8,327.8 1174.0005042588289,343 C 1323.2,358.2 1386.8,291 1440,278" stroke="rgba(240, 248, 255, 1)" stroke-width="2"></path><path d="M -147.38709526473735,41 C -51.39,130.2 140.61,459.2 332.61290473526265,487 C 524.61,514.8 620.61,215 812.6129047352626,180 C 1004.61,145 1100.61,340 1292.6129047352626,312 C 1484.61,284 1743.14,21.4 1772.6129047352626,40 C 1802.09,58.6 1506.52,332 1440,405" stroke="rgba(240, 248, 255, 1)" stroke-width="2"></path><path d="M -955.169166765065,213 C -859.17,243.6 -667.17,378.2 -475.16916676506503,366 C -283.17,353.8 -187.17,144.6 4.830833234934971,152 C 196.83,159.4 292.83,405 484.83083323493497,403 C 676.83,401 773.8,142.2 964.830833234935,142 C 1155.86,141.8 1344.97,350 1440,402" stroke="rgba(240, 248, 255, 1)" stroke-width="2"></path><path d="M -427.2332866846944,98 C -331.23,145.2 -139.23,318.2 52.76671331530558,334 C 244.77,349.8 340.77,171 532.7667133153055,177 C 724.77,183 820.77,377.8 1012.7667133153055,364 C 1204.77,350.2 1407.32,79.2 1492.7667133153057,108 C 1578.21,136.8 1450.55,428 1440,508" stroke="rgba(240, 248, 255, 1)" stroke-width="2"></path><path d="M -178.51856604612135,253 C -82.52,296.4 109.48,514.6 301.48143395387865,470 C 493.48,425.4 589.48,30 781.4814339538786,30 C 973.48,30 1069.48,456.2 1261.4814339538786,470 C 1453.48,483.8 1705.78,90 1741.4814339538786,99 C 1777.19,108 1500.3,431.8 1440,515" stroke="rgba(240, 248, 255, 1)" stroke-width="2"></path><path d="M -444.59163273401265,449 C -348.59,408.8 -156.59,276.6 35.40836726598737,248 C 227.41,219.4 323.41,338.8 515.4083672659874,306 C 707.41,273.2 803.41,48.6 995.4083672659874,84 C 1187.41,119.4 1386.49,488.2 1475.4083672659874,483 C 1564.33,477.8 1447.08,143 1440,58" stroke="rgba(240, 248, 255, 1)" stroke-width="2"></path></g><defs><mask id="SvgjsMask1001"><rect width="5000" height="560" fill="#ffffff"></rect></mask></defs></svg>